# xmcd
#
# Track frame offsets:
#	150
#	9991
#	23190
#	39484
#	51278
#	64077
#	79911
#	96042
#	108102
#	119187
#	130174
#	144233
#
# Disc length: 2184 seconds
#
# Revision: 3
# Processed by: cddbd v1.5.1PL0 Copyright (c) Steve Scherf et al.
# Submitted via: audiograbber 1.83.01
#
DISCID=9b08860c
DTITLE=Delbert and Glen - Subject To Change
DYEAR=2005
DGENRE=Blues
TTITLE0=Oh My
TTITLE1=If You Don't Leave Me Alone (I'm Gonna Find Somebody That Will)
TTITLE2=Lucky Boy (Your Ramblin' Days Are Through)
TTITLE3=Too Much
TTITLE4=Sidewalk Diploma
TTITLE5=Cold November
TTITLE6=I Don't Want To Hear It Anymore
TTITLE7=Let Me Be Your Lover
TTITLE8=Bless 'em
TTITLE9=California Livin'
TTITLE10=You Gonna Miss Me
TTITLE11=To Be With You
EXTD=Delbert McClinton and Glen Clark\nThis is Delbert's seond album - Originally
EXTD=released in 1973 on vinyl under title "Clean"\nIsuued by Atlantic Recordi
EXTD=ng Corp., 
EXTT0=
EXTT1=
EXTT2=
EXTT3=
EXTT4=
EXTT5=
EXTT6=
EXTT7=
EXTT8=
EXTT9=
EXTT10=
EXTT11=
PLAYORDER=
